<svg width="222" height="28" viewBox="0 0 222 28" fill="none" xmlns="http://www.w3.org/2000/svg">
<path d="M20.5946 2.39706C17.8959 1.24369 14.9173 0.616616 11.782 0.650209H11.7596C8.62421 0.616616 5.6456 1.24369 2.93575 2.39706C1.11051 3.1697 -0.0540558 4.99494 0.00193303 6.98814C0.0915151 9.91075 0.192295 13.0349 0.304272 16.3943C0.349063 17.6148 0.841765 18.8018 1.70399 19.664C4.50343 22.441 7.51563 25.0053 10.8078 27.3457C11.3677 27.7488 12.1403 27.7488 12.7002 27.3457C15.9923 25.0053 19.0045 22.4522 21.804 19.664C22.6774 18.8018 23.1589 17.6148 23.2037 16.3943C23.3269 13.0461 23.4276 9.92195 23.506 6.98814C23.562 4.99494 22.4086 3.1697 20.5722 2.39706H20.5946Z" fill="#C7CCDD"/>
<path d="M70.1136 2.39799C67.4038 1.24462 64.4252 0.617542 61.2898 0.651135H61.2674C58.132 0.606344 55.1534 1.24462 52.4436 2.38679C50.6071 3.17063 49.4538 4.99586 49.5098 6.97787C49.5993 9.90048 49.7001 13.0247 49.8121 16.384C49.8569 17.6045 50.3496 18.7915 51.2118 19.6537C54.0113 22.4308 57.0235 24.9951 60.3156 27.3354C60.8755 27.7385 61.6481 27.7385 62.208 27.3354C65.5002 24.9951 68.5124 22.442 71.3118 19.6537C72.1852 18.7915 72.6667 17.6045 72.7115 16.384C72.8347 13.0359 72.9355 9.91168 73.0139 6.97787C73.0698 4.98467 71.9165 3.15943 70.08 2.38679L70.1136 2.39799Z" fill="#C7CCDD"/>
<path d="M169.13 2.39799C166.42 1.24462 163.441 0.617542 160.306 0.651135H160.283C157.148 0.606344 154.169 1.24462 151.459 2.38679C149.623 3.17063 148.47 4.99586 148.526 6.97787C148.615 9.90048 148.716 13.0247 148.828 16.384C148.873 17.6045 149.365 18.7915 150.228 19.6537C153.027 22.4308 156.039 24.9951 159.331 27.3354C159.891 27.7385 160.664 27.7385 161.224 27.3354C164.516 24.9951 167.528 22.442 170.328 19.6537C171.201 18.7915 171.683 17.6045 171.727 16.384C171.851 13.0359 171.951 9.91168 172.03 6.97787C172.086 4.98467 170.932 3.15943 169.096 2.38679L169.13 2.39799Z" fill="#C7CCDD"/>
<path d="M119.621 2.39799C116.912 1.24462 113.933 0.617542 110.798 0.651135H110.775C107.64 0.606344 104.661 1.24462 101.951 2.38679C100.115 3.17063 98.9616 4.99586 99.0176 6.97787C99.1072 9.90048 99.2079 13.0247 99.3199 16.384C99.3647 17.6045 99.8574 18.7915 100.72 19.6537C103.519 22.4308 106.531 24.9951 109.823 27.3354C110.383 27.7385 111.156 27.7385 111.716 27.3354C115.008 24.9951 118.02 22.442 120.82 19.6537C121.693 18.7915 122.175 17.6045 122.219 16.384C122.342 13.0359 122.443 9.91168 122.522 6.97787C122.578 4.98467 121.424 3.15943 119.588 2.38679L119.621 2.39799Z" fill="#C7CCDD"/>
<path d="M218.638 2.39799C215.928 1.24462 212.949 0.617542 209.814 0.651135H209.791C206.656 0.606344 203.677 1.24462 200.967 2.38679C199.131 3.17063 197.978 4.99586 198.034 6.97787C198.123 9.90048 198.224 13.0247 198.336 16.384C198.381 17.6045 198.874 18.7915 199.736 19.6537C202.535 22.4308 205.547 24.9951 208.84 27.3354C209.399 27.7385 210.172 27.7385 210.732 27.3354C214.024 24.9951 217.036 22.442 219.836 19.6537C220.709 18.7915 221.191 17.6045 221.235 16.384C221.359 13.0359 221.459 9.91168 221.538 6.97787C221.594 4.98467 220.44 3.15943 218.604 2.38679L218.638 2.39799Z" fill="#016FFC"/>
</svg>
