<svg width="75" height="21" viewBox="0 0 75 21" fill="none" xmlns="http://www.w3.org/2000/svg">
    <rect x="54.873" y="1.0874" width="7.71429" height="7.78378" rx="1" fill="#F97D7D" />
    <rect x="64.8398" y="11.3037" width="7.71429" height="7.78378" rx="1" fill="#F97D7D" />
    <rect x="65.1562" y="1.0874" width="7.71429" height="7.78378" rx="3.85714" fill="#FFB92E" />
    <rect x="54.873" y="11.3037" width="7.71429" height="7.78378" rx="3.85714" fill="#FFB92E" />
    <path
        d="M19.2476 3.08741L19.2476 17.0874C19.2476 18.192 18.3521 19.0874 17.2476 19.0874L3.24756 19.0874C2.14299 19.0874 1.24756 18.192 1.24756 17.0874L1.24756 3.0874C1.24756 1.98283 2.14299 1.0874 3.24756 1.0874L17.2476 1.0874C18.3521 1.0874 19.2476 1.98284 19.2476 3.08741Z"
        fill="#0DBC79" />
    <path fill-rule="evenodd" clip-rule="evenodd"
        d="M38.3713 1.39941C37.5657 0.910484 36.555 0.910484 35.7494 1.39941L30.4633 4.60775C29.7085 5.06586 29.2476 5.88475 29.2476 6.76769V13.4072C29.2476 14.2901 29.7085 15.109 30.4633 15.5671L35.7494 18.7754C36.555 19.2644 37.5657 19.2644 38.3713 18.7754L43.6575 15.5671C44.4123 15.109 44.8732 14.2901 44.8732 13.4072V6.76768C44.8732 5.88475 44.4123 5.06586 43.6575 4.60775L38.3713 1.39941ZM37.0616 13.5823C38.897 13.5823 40.3849 12.0182 40.3849 10.0888C40.3849 8.15934 38.897 6.59522 37.0616 6.59522C35.2262 6.59522 33.7383 8.15934 33.7383 10.0888C33.7383 12.0182 35.2262 13.5823 37.0616 13.5823Z"
        fill="#006DF9" />
</svg>