<svg width="83" height="20" viewBox="0 0 83 20" fill="none" xmlns="http://www.w3.org/2000/svg">
<path d="M35 20.0005C40.5228 20.0005 45 15.5233 45 10.0005C45 4.47764 40.5228 0.000488281 35 0.000488281C29.4772 0.000488281 25 4.47764 25 10.0005C25 15.5233 29.4772 20.0005 35 20.0005Z" fill="#FFB92E"/>
<path d="M6.6301 19.9926L4.97562 18.8144C6.16257 16.9054 7.56738 15.1907 9.16514 13.6932L-0.000136375 13.6932V11.3292L11.9992 11.3292C12.5515 11.3292 12.9992 11.7769 12.9992 12.3292V12.4679C12.9993 12.4801 12.9993 12.4924 12.9993 12.5047C12.9993 12.5105 12.9993 12.5163 12.9992 12.522V12.7254C12.9992 13.2661 12.5019 13.6395 12.0675 13.9615C9.83687 15.6536 8.15163 17.5572 6.6301 20.0005V19.9926Z" fill="#006DF9"/>
<path d="M6.36984 0.00790315L8.02432 1.18604C6.83737 3.09511 5.43256 4.80983 3.8348 6.30734L13.0001 6.30734V8.67127L1.00074 8.67129C0.448458 8.67129 0.000741637 8.22358 0.000741637 7.67129V7.53255C0.000652874 7.52036 0.000610352 7.5081 0.000610352 7.49577C0.000610351 7.49 0.000654253 7.48424 0.000741637 7.47847V7.27509C0.000741637 6.73436 0.498043 6.36098 0.932476 6.03901C3.16307 4.34693 4.84831 2.44324 6.36984 0V0.00790315Z" fill="#006DF9"/>
<path d="M80.0765 0H59.9235C58.3089 0 57 1.61049 57 3.59712V16.4029C57 18.3895 58.3089 20 59.9235 20H80.0765C81.6911 20 83 18.3895 83 16.4029V3.59712C83 1.61049 81.6911 0 80.0765 0Z" fill="#F97D7D"/>
</svg>
