<svg width="89" height="21" viewBox="0 0 89 21" fill="none" xmlns="http://www.w3.org/2000/svg">
<path d="M55.2476 3.08741L55.2476 17.0874C55.2476 18.192 54.3521 19.0874 53.2476 19.0874L39.2476 19.0874C38.143 19.0874 37.2476 18.192 37.2476 17.0874L37.2476 3.0874C37.2476 1.98283 38.143 1.0874 39.2476 1.0874L53.2476 1.0874C54.3521 1.0874 55.2476 1.98284 55.2476 3.08741Z" fill="#0070FF"/>
<path d="M76.2476 19.0874C81.2181 19.0874 85.2476 15.058 85.2476 10.0874C85.2476 5.11684 81.2181 1.0874 76.2476 1.0874C71.277 1.0874 67.2476 5.11684 67.2476 10.0874C67.2476 15.058 71.277 19.0874 76.2476 19.0874Z" fill="#0DBC79"/>
<path d="M72.3053 10.0078L74.7277 12.4302C75.0446 12.7472 75.5653 12.7245 75.8521 12.3699C76.5992 11.4416 78.1538 9.65313 80.4026 7.73633" stroke="#FBFDFE" stroke-width="1.86043" stroke-miterlimit="10"/>
<path fill-rule="evenodd" clip-rule="evenodd" d="M3.94621 1.0874H22.5489C24.0393 1.0874 25.2476 2.53684 25.2476 4.32481V15.85C25.2476 17.638 24.0393 19.0874 22.5489 19.0874H3.94621C2.45579 19.0874 1.24756 17.638 1.24756 15.85V8.0874H25.2476V6.0874H1.24756V4.32481C1.24756 2.53684 2.45579 1.0874 3.94621 1.0874Z" fill="#F97D7D"/>
</svg>
