<svg width="82" height="19" viewBox="0 0 82 19" fill="none" xmlns="http://www.w3.org/2000/svg">
<path d="M15.06 0H3C1.34315 0 0 1.34315 0 3V15.06C0 16.7169 1.34315 18.06 3 18.06H15.06C16.7169 18.06 18.06 16.7169 18.06 15.06V3C18.06 1.34315 16.7169 0 15.06 0Z" fill="#0070FF"/>
<path d="M79 0H36.0601C34.4032 0 33.0601 1.34315 33.0601 3V15.06C33.0601 16.7169 34.4032 18.06 36.0601 18.06H79C80.6569 18.06 82 16.7169 82 15.06V3C82 1.34315 80.6569 0 79 0Z" fill="url(#paint0_linear_2719_129)"/>
<defs>
<linearGradient id="paint0_linear_2719_129" x1="38" y1="0" x2="77" y2="0" gradientUnits="userSpaceOnUse">
<stop stop-color="#0070FF"/>
<stop offset="1" stop-color="#0070FF" stop-opacity="0"/>
</linearGradient>
</defs>
</svg>
