<svg width="89" height="23" viewBox="0 0 89 23" fill="none" xmlns="http://www.w3.org/2000/svg">
    <path
        d="M41.6314 22.6379C47.7584 22.6379 52.7253 17.671 52.7253 11.544C52.7253 5.41707 47.7584 0.450195 41.6314 0.450195C35.5045 0.450195 30.5376 5.41707 30.5376 11.544C30.5376 17.671 35.5045 22.6379 41.6314 22.6379Z"
        fill="#0070FF" />
    <path
        d="M70.0551 10.0385L81.3399 3.18699C82.5138 2.47428 84.0156 3.31937 84.0156 4.69267V18.3956C84.0156 19.7689 82.5138 20.614 81.3399 19.9013L70.0551 13.0498C68.9254 12.3639 68.9254 10.7244 70.0551 10.0385Z"
        fill="#F97D7D" />
    <path
        d="M15.5357 10.0385L4.25089 3.18699C3.07701 2.47428 1.57526 3.31937 1.57526 4.69267V18.3956C1.57526 19.7689 3.07701 20.614 4.25089 19.9013L15.5357 13.0498C16.6654 12.3639 16.6654 10.7244 15.5357 10.0385Z"
        fill="#F97D7D" />
</svg>