<svg width="107" height="20" viewBox="0 0 107 20" fill="none" xmlns="http://www.w3.org/2000/svg">
<path d="M12.76 0H9.78C4.37865 0 0 4.37865 0 9.78V9.79C0 15.1913 4.37865 19.57 9.78 19.57H12.76C18.1613 19.57 22.54 15.1913 22.54 9.79V9.78C22.54 4.37865 18.1613 0 12.76 0Z" fill="url(#paint0_linear_2719_434)"/>
<path d="M54.9099 0H51.9299C46.5286 0 42.1499 4.37865 42.1499 9.78V9.79C42.1499 15.1913 46.5286 19.57 51.9299 19.57H54.9099C60.3112 19.57 64.6899 15.1913 64.6899 9.79V9.78C64.6899 4.37865 60.3112 0 54.9099 0Z" fill="#8891B1"/>
<path d="M97.05 0H94.07C88.6687 0 84.29 4.37865 84.29 9.78V9.79C84.29 15.1913 88.6687 19.57 94.07 19.57H97.05C102.451 19.57 106.83 15.1913 106.83 9.79V9.78C106.83 4.37865 102.451 0 97.05 0Z" fill="#0DBC79"/>
<defs>
<linearGradient id="paint0_linear_2719_434" x1="28.5" y1="10" x2="11.27" y2="10" gradientUnits="userSpaceOnUse">
<stop stop-color="#8891B1"/>
<stop offset="1" stop-color="#8891B1" stop-opacity="0"/>
</linearGradient>
</defs>
</svg>
