<svg width="125" height="32" viewBox="0 0 125 32" fill="none" xmlns="http://www.w3.org/2000/svg">
<path d="M15.9665 31.9998C24.7846 31.9998 31.9331 24.8364 31.9331 15.9999C31.9331 7.16341 24.7846 0 15.9665 0C7.14846 0 0 7.16341 0 15.9999C0 24.8364 7.14846 31.9998 15.9665 31.9998Z" fill="#26A8F7"/>
<path d="M109.034 31.9998C117.852 31.9998 125 24.8364 125 15.9999C125 7.16341 117.852 0 109.034 0C100.216 0 93.067 7.16341 93.067 15.9999C93.067 24.8364 100.216 31.9998 109.034 31.9998Z" fill="#0DBC79"/>
<path d="M102.049 15.8565L106.347 20.163C106.909 20.7265 107.833 20.6863 108.342 20.0557C109.667 18.4056 112.425 15.226 116.415 11.8184" stroke="#FBFDFE" stroke-width="4.49698" stroke-miterlimit="10"/>
<path d="M63.176 3.2481L60.1043 5.29558C62.9154 9.52795 66.3848 13.2107 70.4163 16.2613C66.3848 19.3119 62.9154 22.9946 60.1043 27.2269L63.176 29.2744C66.0008 25.042 69.525 21.4006 73.6799 18.4462C74.393 17.9377 74.8181 17.1132 74.8181 16.2475C74.8181 15.3818 74.393 14.5573 73.6799 14.0626C69.5387 11.122 66.0008 7.48047 63.176 3.23436L63.176 3.2481Z" fill="#C7CCDD"/>
<path d="M72.4488 14.4119L72.4488 18.1084L50.2067 18.1084L50.2067 14.4119L72.4488 14.4119Z" fill="#C7CCDD"/>
</svg>
