<svg width="81" height="21" viewBox="0 0 81 21" fill="none" xmlns="http://www.w3.org/2000/svg">
<path d="M39.4832 1.01002L37.2361 2.50396C39.2926 5.59209 41.8306 8.27915 44.7799 10.505C41.8306 12.7309 39.2926 15.4179 37.2361 18.5061L39.4832 20C41.5497 16.9119 44.1278 14.2549 47.1674 12.0992C47.689 11.7282 48 11.1266 48 10.495C48 9.86332 47.689 9.26174 47.1674 8.90079C44.1379 6.75514 41.5497 4.09815 39.4832 1L39.4832 1.01002Z" fill="#FFB92E"/>
<path d="M46.2711 9.15861L46.2711 11.8557L29.9999 11.8557L29.9999 9.15861L46.2711 9.15861Z" fill="#FFB92E"/>
<path fill-rule="evenodd" clip-rule="evenodd" d="M10.2632 1.33866C9.4815 0.887439 8.5185 0.88744 7.73684 1.33866L1.26347 5.07545C0.48164 5.52677 0 6.36092 0 7.26366V14.7365C0 15.6393 0.48164 16.4734 1.26347 16.9247L7.73684 20.6615C8.5185 21.1128 9.4815 21.1128 10.2632 20.6615L16.7365 16.9247C17.5184 16.4734 18 15.6393 18 14.7365V7.26366C18 6.36092 17.5184 5.52677 16.7365 5.07545L10.2632 1.33866ZM9.00113 14.829C11.1154 14.829 12.8294 13.1153 12.8294 11.0014C12.8294 8.88743 11.1154 7.17373 9.00113 7.17373C6.88683 7.17373 5.17285 8.88743 5.17285 11.0014C5.17285 13.1153 6.88683 14.829 9.00113 14.829Z" fill="#F97D7D"/>
<rect x="62.625" y="9.1875" width="2.625" height="9.1875" fill="#006DF9"/>
<rect x="60" y="21" width="5.25" height="21" transform="rotate(-90 60 21)" fill="#006DF9"/>
<path d="M60 10.5L60 7.5L69.2794 0.871856C70.0096 0.35031 70.9904 0.350311 71.7206 0.871857L81 7.5L81 10.5L60 10.5Z" fill="#006DF9"/>
<rect x="69.1875" y="9.1875" width="2.625" height="9.1875" fill="#006DF9"/>
<rect x="75.75" y="9.1875" width="2.625" height="9.1875" fill="#006DF9"/>
</svg>
