<svg width="140" height="72" viewBox="0 0 140 72" fill="none" xmlns="http://www.w3.org/2000/svg">
<path d="M54.94 10.16C47.4 10.16 41.33 16.45 41.68 24.07C42.02 31.21 48.16 36.7 55.31 36.7H59.51C60.61 36.7 61.51 35.8 61.51 34.7V12.16C61.51 11.06 60.61 10.16 59.51 10.16H54.93H54.94Z" fill="#E9A273"/>
<path d="M47.46 25.44H25.44C11.41 25.44 0 14.03 0 0H4C4 11.82 13.62 21.44 25.44 21.44H47.46V25.44Z" fill="#E9A273"/>
<path d="M84.73 36.71C92.27 36.71 98.34 30.42 97.99 22.8C97.65 15.66 91.51 10.17 84.36 10.17H80.16C79.06 10.17 78.16 11.07 78.16 12.17V34.71C78.16 35.81 79.06 36.71 80.16 36.71H84.74H84.73Z" fill="#E9A273"/>
<path d="M139.67 71.53H135.67V46.87C135.67 35.05 126.05 25.43 114.23 25.43H92.21V21.43H114.23C128.26 21.43 139.67 32.84 139.67 46.87V71.53Z" fill="#E9A273"/>
<path d="M64.62 15.64H59.88C58.792 15.64 57.91 16.522 57.91 17.61C57.91 18.698 58.792 19.58 59.88 19.58H64.62C65.708 19.58 66.59 18.698 66.59 17.61C66.59 16.522 65.708 15.64 64.62 15.64Z" fill="#E9A273"/>
<path d="M64.62 27.29H59.88C58.792 27.29 57.91 28.172 57.91 29.26C57.91 30.348 58.792 31.23 59.88 31.23H64.62C65.708 31.23 66.59 30.348 66.59 29.26C66.59 28.172 65.708 27.29 64.62 27.29Z" fill="#E9A273"/>
</svg>
