<svg width="129" height="20" viewBox="0 0 129 20" fill="none" xmlns="http://www.w3.org/2000/svg">
<path d="M9.78 19.56C15.1813 19.56 19.56 15.1813 19.56 9.78C19.56 4.37865 15.1813 0 9.78 0C4.37865 0 0 4.37865 0 9.78C0 15.1813 4.37865 19.56 9.78 19.56Z" fill="#FFB92E"/>
<path d="M72.53 17.41L82.77 1.52C83 1.16 83.52 1.16 83.75 1.52L93.98 17.41C94.23 17.8 93.95 18.31 93.49 18.31H73.03C72.57 18.31 72.29 17.8 72.54 17.41H72.53Z" fill="#006DF9"/>
<path d="M52.55 0.75H40.49C38.8331 0.75 37.49 2.09315 37.49 3.75V15.81C37.49 17.4669 38.8331 18.81 40.49 18.81H52.55C54.2068 18.81 55.55 17.4669 55.55 15.81V3.75C55.55 2.09315 54.2068 0.75 52.55 0.75Z" fill="#6859F7"/>
<path d="M123.45 1.25H113.6L108.68 9.78L113.6 18.31H123.45L128.37 9.78L123.45 1.25Z" fill="#F97D7D"/>
</svg>
