<svg width="79" height="21" viewBox="0 0 79 21" fill="none" xmlns="http://www.w3.org/2000/svg">
    <g clip-path="url(#clip0_4555_3702)">
        <path
            d="M74.8951 1.91319L75.5086 4.96465C71.3119 5.80727 67.0497 5.92998 62.8284 5.34096C63.4174 9.56227 63.2947 13.8245 62.452 18.0212L59.4006 17.4077C60.235 13.2027 60.3005 8.93235 59.5806 4.69468C59.4579 3.96658 59.6951 3.22212 60.2105 2.70673C60.7259 2.19134 61.4703 1.9541 62.1903 2.08499C66.4116 2.8049 70.6901 2.74764 74.9033 1.90502L74.8951 1.91319Z"
            fill="#0DBC79" />
        <path d="M62.7104 3.02641L60.5098 5.22705L73.7791 18.4964L75.9797 16.2957L62.7104 3.02641Z" fill="#0DBC79" />
    </g>
    <path
        d="M8.42923 4.3604L1.96438 15.9971C1.19413 17.3836 2.19667 19.0874 3.78271 19.0874L16.7124 19.0874C18.2984 19.0874 19.301 17.3836 18.5307 15.9971L12.0659 4.36039C11.2734 2.93385 9.22175 2.93385 8.42923 4.3604Z"
        fill="#FFB92E" />
    <rect x="34.7476" y="1.0874" width="9" height="9" rx="4.5" fill="#6859F7" />
    <rect x="30.2476" y="11.2124" width="18" height="7.875" rx="3.9375" fill="#6859F7" />
    <defs>
        <clipPath id="clip0_4555_3702">
            <rect width="20" height="20" fill="white" transform="matrix(-1 0 0 1 78.248 0.0874023)" />
        </clipPath>
    </defs>
</svg>