<svg width="112" height="18" viewBox="0 0 112 18" fill="none" xmlns="http://www.w3.org/2000/svg">
<path d="M16.16 13.456L13.72 14.586C12.17 11.226 11.2 7.67601 10.84 4.00601C7.41 5.35601 3.8 6.11601 0.1 6.25601L0 3.56601C3.7 3.42601 7.31 2.60601 10.72 1.14601C11.31 0.896009 11.98 0.946009 12.52 1.27601C13.06 1.60601 13.4 2.18601 13.45 2.81601C13.7 6.51601 14.61 10.096 16.17 13.456H16.16Z" fill="#FFB92E"/>
<path d="M10.6244 1.76778L2.15918 15.6035L4.45376 17.0074L12.919 3.1717L10.6244 1.76778Z" fill="#FFB92E"/>
<path d="M64.2298 9.21609L62.5598 11.3261C59.6498 9.03609 57.1798 6.30609 55.1998 3.19609C52.7498 5.95609 49.8798 8.26609 46.6498 10.0661L45.3398 7.71609C48.5798 5.90609 51.4198 3.55609 53.7998 0.706091C54.2098 0.216091 54.8298 -0.043909 55.4598 0.00609102C56.0898 0.056091 56.6598 0.416091 56.9798 0.956091C58.8798 4.13609 61.3098 6.91609 64.2298 9.21609Z" fill="#26A8F7"/>
<path d="M53.996 1.30831L52.7121 17.4774L55.3937 17.6903L56.6776 1.52124L53.996 1.30831Z" fill="#26A8F7"/>
<path d="M111.08 8.76637L109.59 11.0064C106.51 8.95637 103.83 6.42637 101.61 3.48637C99.3901 6.42637 96.7101 8.95637 93.6301 11.0064L92.1401 8.76637C95.2201 6.70637 97.8701 4.13637 100.02 1.10637C100.39 0.586367 100.99 0.276367 101.62 0.276367C102.25 0.276367 102.85 0.586367 103.21 1.10637C105.35 4.12637 108 6.70637 111.09 8.76637H111.08Z" fill="#006DF9"/>
<path d="M102.96 1.68634H100.27V17.9063H102.96V1.68634Z" fill="#006DF9"/>
</svg>
