<svg width="84" height="21" viewBox="0 0 84 21" fill="none" xmlns="http://www.w3.org/2000/svg">
<path d="M42.5369 0.0110762L40.0402 1.66227C42.3251 5.07546 45.1451 8.04538 48.4221 10.5055C45.1451 12.9657 42.3251 15.9356 40.0402 19.3488L42.5369 21C44.833 17.5868 47.6976 14.6501 51.0749 12.2675C51.6545 11.8575 52 11.1926 52 10.4945C52 9.7963 51.6545 9.1314 51.0749 8.73245C47.7087 6.36095 44.833 3.42427 42.5369 2.233e-07L42.5369 0.0110762Z" fill="#006DF9"/>
<path d="M50.0791 9.01753L50.0791 11.9985L32 11.9985L32 9.01753L50.0791 9.01753Z" fill="#006DF9"/>
<path d="M10 21.0005C15.5228 21.0005 20 16.5233 20 11.0005C20 5.47764 15.5228 1.00049 10 1.00049C4.47715 1.00049 0 5.47764 0 11.0005C0 16.5233 4.47715 21.0005 10 21.0005Z" fill="#FFB92E"/>
<rect x="64" y="0.999756" width="8.75" height="8.75" rx="4.375" fill="#49BF89"/>
<rect x="75.25" y="0.999756" width="8.75" height="8.75" rx="4.375" fill="#49BF89"/>
<rect x="64" y="12.2498" width="8.75" height="8.75" rx="4.375" fill="#49BF89"/>
<rect x="75.25" y="12.2498" width="8.75" height="8.75" rx="4.375" fill="#49BF89"/>
</svg>
