<svg width="182" height="72" viewBox="0 0 182 72" fill="none" xmlns="http://www.w3.org/2000/svg">
<path d="M171.112 45.6298H153.877C147.981 45.6298 143.202 50.4089 143.202 56.3043C143.202 62.1997 147.981 66.9789 153.877 66.9789H171.112C177.007 66.9789 181.786 62.1997 181.786 56.3043C181.786 50.4089 177.007 45.6298 171.112 45.6298Z" fill="#006DF9"/>
<path d="M77.4857 43.7154L67.4049 53.7962C66.0199 55.1811 66.0199 57.4266 67.4049 58.8115L77.4857 68.8923C78.8706 70.2772 81.116 70.2772 82.501 68.8923L92.5817 58.8115C93.9667 57.4266 93.9667 55.1811 92.5817 53.7962L82.501 43.7154C81.116 42.3305 78.8706 42.3305 77.4857 43.7154Z" fill="#6859F7"/>
<path d="M56.4107 58.0775H1.77318C0.79202 58.0775 0 57.2855 0 56.3044C0 55.3232 0.79202 54.5312 1.77318 54.5312H56.4107C57.3919 54.5312 58.1839 55.3232 58.1839 56.3044C58.1839 57.2855 57.3919 58.0775 56.4107 58.0775Z" fill="#C7CCDD"/>
<path d="M132.043 58.0775H104.558C103.577 58.0775 102.785 57.2855 102.785 56.3044C102.785 55.3232 103.577 54.5312 104.558 54.5312H132.043C133.024 54.5312 133.816 55.3232 133.816 56.3044C133.816 57.2855 133.024 58.0775 132.043 58.0775Z" fill="#C7CCDD"/>
<path d="M79.994 33.3949C79.0128 33.3949 78.2208 32.6029 78.2208 31.6217V1.77318C78.2208 0.79202 79.0128 0 79.994 0C80.9752 0 81.7672 0.79202 81.7672 1.77318V31.6217C81.7672 32.6029 80.9752 33.3949 79.994 33.3949Z" fill="#C7CCDD"/>
<path d="M160.839 60.3945C160.224 60.3945 159.622 60.1462 159.184 59.7088L155.484 56.0088L157.151 54.342L160.851 58.0421C161.95 56.6353 164.386 53.8219 167.908 50.8193L169.445 52.6161C166.064 55.5005 163.747 58.1839 162.66 59.5315C162.246 60.0517 161.619 60.359 160.969 60.3945C160.922 60.3945 160.886 60.3945 160.839 60.3945Z" fill="#FBFDFE"/>
</svg>
