<svg width="126" height="25" viewBox="0 0 126 25" fill="none" xmlns="http://www.w3.org/2000/svg">
<path d="M48.2818 22.9469L62.3706 1.05749C62.689 0.568534 63.4053 0.568534 63.7237 1.05749L77.8239 22.9469C78.1651 23.4813 77.7898 24.1863 77.1416 24.1863H48.9527C48.3159 24.1863 47.9293 23.4813 48.2704 22.9469H48.2818Z" fill="#ABC6AB"/>
<path d="M20.7523 0H4.12772C1.84804 0 0 1.84804 0 4.12772V20.7523C0 23.032 1.84804 24.88 4.12772 24.88H20.7523C23.032 24.88 24.88 23.032 24.88 20.7523V4.12772C24.88 1.84804 23.032 0 20.7523 0Z" fill="#ABC6AB"/>
<path d="M118.419 0.693619H104.842L98.0645 12.44L104.842 24.1863H118.419L125.196 12.44L118.419 0.693619Z" fill="#ABC6AB"/>
</svg>
