<svg width="84" height="20" viewBox="0 0 84 20" fill="none" xmlns="http://www.w3.org/2000/svg">
<path d="M40.8029 0.856149C41.1928 -0.285383 42.8072 -0.285383 43.1971 0.856149L45.0193 6.19241C45.1459 6.56303 45.437 6.85412 45.8076 6.98068L51.1439 8.80295C52.2854 9.19276 52.2854 10.8072 51.1439 11.1971L45.8076 13.0193C45.437 13.1459 45.1459 13.437 45.0193 13.8076L43.1971 19.1439C42.8072 20.2854 41.1928 20.2854 40.8029 19.1439L38.9807 13.8076C38.8541 13.437 38.563 13.1459 38.1924 13.0193L32.8561 11.1971C31.7146 10.8072 31.7146 9.19276 32.8561 8.80295L38.1924 6.98068C38.563 6.85412 38.8541 6.56303 38.9807 6.19241L40.8029 0.856149Z" fill="#26A8F7"/>
<path d="M20 2L20 18C20 19.1046 19.1046 20 18 20L2 20C0.89543 20 3.91405e-08 19.1046 8.74228e-08 18L7.86805e-07 2C8.35087e-07 0.895431 0.895432 1.07226e-06 2 1.12054e-06L18 1.81993e-06C19.1046 1.86821e-06 20 0.895432 20 2Z" fill="#49BF89"/>
<rect x="64" width="8.75" height="8.75" rx="4.375" fill="#FFB92E"/>
<rect x="75.25" width="8.75" height="8.75" rx="4.375" fill="#FFB92E"/>
<rect x="64" y="11.25" width="8.75" height="8.75" rx="4.375" fill="#FFB92E"/>
<rect x="75.25" y="11.25" width="8.75" height="8.75" rx="4.375" fill="#FFB92E"/>
</svg>
