<svg width="72" height="23" viewBox="0 0 72 23" fill="none" xmlns="http://www.w3.org/2000/svg">
<path d="M9.79 21.08C15.1969 21.08 19.58 16.6969 19.58 11.29C19.58 5.88313 15.1969 1.5 9.79 1.5C4.38313 1.5 0 5.88313 0 11.29C0 16.6969 4.38313 21.08 9.79 21.08Z" fill="#006DF9"/>
<path d="M71.34 13.06V9.53C71.34 9.19 71.06 8.91 70.72 8.91H69.57C69.3 8.91 69.07 8.73 68.99 8.47C68.83 7.95 68.62 7.45 68.37 6.97C68.24 6.73 68.28 6.44 68.47 6.25L69.28 5.44C69.52 5.2 69.52 4.81 69.28 4.56L66.78 2.06C66.54 1.82 66.15 1.82 65.9 2.06L65.09 2.87C64.9 3.06 64.61 3.1 64.37 2.97C63.89 2.72 63.39 2.51 62.87 2.35C62.61 2.27 62.43 2.04 62.43 1.77V0.62C62.43 0.28 62.15 0 61.81 0H58.28C57.94 0 57.66 0.28 57.66 0.62V1.77C57.66 2.04 57.48 2.27 57.22 2.35C56.7 2.51 56.2 2.72 55.72 2.97C55.48 3.1 55.19 3.06 55 2.87L54.19 2.06C53.95 1.82 53.56 1.82 53.31 2.06L50.81 4.56C50.57 4.8 50.57 5.19 50.81 5.44L51.62 6.25C51.81 6.44 51.85 6.73 51.72 6.97C51.47 7.45 51.26 7.95 51.1 8.47C51.02 8.73 50.79 8.91 50.52 8.91H49.37C49.03 8.91 48.75 9.19 48.75 9.53V13.06C48.75 13.4 49.03 13.68 49.37 13.68H50.52C50.79 13.68 51.02 13.86 51.1 14.12C51.26 14.64 51.47 15.14 51.72 15.62C51.85 15.86 51.81 16.15 51.62 16.34L50.81 17.15C50.57 17.39 50.57 17.78 50.81 18.03L53.31 20.53C53.55 20.77 53.94 20.77 54.19 20.53L55 19.72C55.19 19.53 55.48 19.49 55.72 19.62C56.2 19.87 56.7 20.08 57.22 20.24C57.48 20.32 57.66 20.55 57.66 20.82V21.97C57.66 22.31 57.94 22.59 58.28 22.59H61.81C62.15 22.59 62.43 22.31 62.43 21.97V20.82C62.43 20.55 62.61 20.32 62.87 20.24C63.39 20.08 63.89 19.87 64.37 19.62C64.61 19.49 64.9 19.53 65.09 19.72L65.9 20.53C66.14 20.77 66.53 20.77 66.78 20.53L69.28 18.03C69.52 17.79 69.52 17.4 69.28 17.15L68.47 16.34C68.28 16.15 68.24 15.86 68.37 15.62C68.62 15.14 68.83 14.64 68.99 14.12C69.07 13.86 69.3 13.68 69.57 13.68H70.72C71.06 13.68 71.34 13.4 71.34 13.06V13.06Z" fill="#006DF9"/>
<path d="M60.05 15.4199C62.3309 15.4199 64.18 13.5708 64.18 11.2899C64.18 9.00898 62.3309 7.15991 60.05 7.15991C57.769 7.15991 55.92 9.00898 55.92 11.2899C55.92 13.5708 57.769 15.4199 60.05 15.4199Z" fill="#FBFDFE"/>
<path d="M36.07 16.83L34.41 15.72C35.54 14.02 36.92 12.54 38.52 11.29C36.92 10.04 35.54 8.55 34.41 6.86L36.07 5.75C37.23 7.49 38.68 8.98 40.39 10.19C40.75 10.44 40.96 10.86 40.96 11.29C40.96 11.72 40.75 12.14 40.39 12.39C38.68 13.6 37.23 15.09 36.07 16.83Z" fill="#006DF9"/>
<path d="M39.92 10.29H27.64V12.29H39.92V10.29Z" fill="#006DF9"/>
</svg>
