<svg width="51" height="20" viewBox="0 0 51 20" fill="none" xmlns="http://www.w3.org/2000/svg">
<path d="M6.80628 19.9895L13.1937 19.9895C13.801 19.9895 14.377 19.7488 14.8063 19.3197L19.3298 14.7985C19.7592 14.3694 20 13.7834 20 13.1868L20 6.80272C20 6.19571 19.7592 5.6201 19.3298 5.191L14.8063 0.669807C14.377 0.240713 13.7906 1.3645e-06 13.1937 1.31232e-06L6.80628 7.53917e-07C6.19895 7.00823e-07 5.62304 0.240712 5.19372 0.669806L0.670156 5.191C0.240836 5.62009 -7.01454e-07 6.20617 -7.53606e-07 6.80272L-1.31264e-06 13.1973C-1.3657e-06 13.8043 0.240836 14.3799 0.670155 14.809L5.19372 19.3302C5.62304 19.7593 6.20942 20 6.80628 20L6.80628 19.9895Z" fill="#6859F7"/>
<path d="M47.6883 0.0625H34.3728C32.5435 0.0625 31.0605 1.54546 31.0605 3.37479V16.6902C31.0605 18.5195 32.5435 20.0025 34.3728 20.0025H47.6883C49.5176 20.0025 51.0005 18.5195 51.0005 16.6902V3.37479C51.0005 1.54546 49.5176 0.0625 47.6883 0.0625Z" fill="#0070FF"/>
</svg>
