<svg width="85" height="21" viewBox="0 0 85 21" fill="none" xmlns="http://www.w3.org/2000/svg">
<path d="M20.9889 11.0369L19.3377 8.54016C15.9245 10.8251 12.9546 13.6451 10.4944 16.9221C8.03424 13.6451 5.06432 10.8251 1.65112 8.54016L-6.08448e-05 11.0369C3.41313 13.333 6.3498 16.1976 8.73239 19.5749C9.14242 20.1545 9.80733 20.5 10.5055 20.5C11.2036 20.5 11.8685 20.1545 12.2675 19.5749C14.639 16.2087 17.5757 13.333 20.9999 11.0369L20.9889 11.0369Z" fill="#006DF9"/>
<path d="M11.9823 18.5791L9.00128 18.5791L9.00128 0.500017L11.9823 0.500017L11.9823 18.5791Z" fill="#006DF9"/>
<path d="M42.9999 21.0005C48.5228 21.0005 52.9999 16.5233 52.9999 11.0005C52.9999 5.47764 48.5228 1.00049 42.9999 1.00049C37.4771 1.00049 32.9999 5.47764 32.9999 11.0005C32.9999 16.5233 37.4771 21.0005 42.9999 21.0005Z" fill="#FFB92E"/>
<path d="M84.9889 11.0369L83.3377 8.54016C79.9245 10.8251 76.9546 13.6451 74.4944 16.9221C72.0342 13.6451 69.0643 10.8251 65.6511 8.54016L63.9999 11.0369C67.4131 13.333 70.3498 16.1976 72.7324 19.5749C73.1424 20.1545 73.8073 20.5 74.5055 20.5C75.2036 20.5 75.8685 20.1545 76.2675 19.5749C78.639 16.2087 81.5757 13.333 84.9999 11.0369L84.9889 11.0369Z" fill="#006DF9"/>
<path d="M75.9823 18.5791L73.0013 18.5791L73.0013 0.500017L75.9823 0.500017L75.9823 18.5791Z" fill="#006DF9"/>
</svg>
